<svg width="110" height="32" viewBox="0 0 110 32" fill="none" xmlns="http://www.w3.org/2000/svg">
<path d="M43.9225 0.265823C43.4119 0.265823 43.1828 0.573644 42.9922 1.01855C31.0483 28.94 30.0436 31.15 30.0436 31.15H36.8122L38.223 27.6458H48.4227L49.8368 31.15H57.8007C57.8007 31.15 57.1183 29.7156 44.8526 1.01855C44.6625 0.574193 44.4319 0.265823 43.9225 0.265823ZM40.3742 22.3025L43.3168 14.9936L46.2664 22.3025H40.3742ZM26.0828 0.904129C26.4535 0.529216 26.8303 0.265668 27.4167 0.265668V31.15H21.0598V16.3832L13.7084 23.8078L6.35678 16.383V31.15H0V0.265668C0.586546 0.265668 0.963502 0.529216 1.3339 0.904129L13.7084 13.4106L26.0828 0.904129ZM77.8741 17.0417C80.2134 15.6258 81.9884 13.1503 81.9884 9.60883C81.9884 6.82146 80.8871 4.53041 78.9787 2.9757C77.0439 1.39943 74.8018 0.550038 70.222 0.550038H60.4276V31.15H67.6654V19.759C67.7213 19.759 69.2741 19.759 69.9074 19.759C72.3519 19.759 73.581 20.6947 74.6047 23.1806C75.4702 25.2822 76.0817 27.7769 76.8769 31.1501H84.9491C83.8036 27.6776 83.23 26.0404 82.3683 23.5909C81.1926 20.249 79.7624 18.1895 77.8741 17.0417ZM73.2445 13.2836C72.3728 13.9656 71.2415 14.1785 69.2066 14.1785C68.6678 14.1785 67.6654 14.1785 67.6654 14.1785C67.6654 14.1785 67.6506 6.02289 67.6654 6.02289C67.6924 6.02289 68.528 6.02289 69.2066 6.02289C71.3312 6.02289 72.3874 6.25958 73.2415 6.91514C74.2191 7.66497 74.6553 8.79155 74.6553 10.0953C74.6553 11.5135 74.1674 12.5614 73.2445 13.2836ZM109.176 25.9468C107.448 29.985 103.215 31.8827 98.392 31.8827C93.4328 31.8827 89.3287 30.2568 86.5709 26.8822L90.7397 22.4703C92.6242 24.8573 95.1908 26.214 98.0677 26.1439C100.143 26.0935 101.406 25.2921 101.913 24.1144C102.491 22.7672 101.949 21.5211 100.974 20.7475C98.2425 18.5807 91.9341 18.452 88.947 14.2315C87.4002 12.0456 86.9709 9.01119 88.228 6.09877C89.8461 2.35034 93.476 0 98.2879 0C102.413 0 106.334 1.58714 108.786 4.22185L104.623 8.62674C103.069 6.76264 100.832 5.61516 98.3334 5.61516C96.5203 5.61516 95.2879 6.43459 94.9179 7.68505C94.618 8.69858 94.944 9.75443 95.8594 10.4749C98.1897 12.3093 104.087 12.8481 107.338 15.9663C110.146 18.6589 110.687 22.4139 109.176 25.9468Z" fill="#0000A0"/>
</svg>
